<?xml version="1.0"?>
<svg width="320" height="320" xmlns="http://www.w3.org/2000/svg" xmlns:svg="http://www.w3.org/2000/svg">
 <!-- Created with SVG-edit - https://github.com/SVG-Edit/svgedit-->
 <g class="layer">
  <title>Layer 1</title>
  <g id="svg_31">
   <defs transform="translate(-166 7) translate(172.036 179) scale(4.49433 4.49433) translate(-172.036 -179) translate(1.34294 1.3855) scale(1.19851 1.19851) translate(-1.34294 -1.3855)">
    <linearGradient id="svg_30" x1="-4.42" x2="1.16" y1="-4.88" y2="1.23">
     <stop offset="0" stop-color="rgb(0%,100%,100%)"/>
     <stop offset="1" stop-color="rgb(21.176471%,54.901961%,100%)"/>
    </linearGradient>
    <linearGradient id="svg_29" x1="-1.53" x2="1.27" y1="-1.71" y2="1.34">
     <stop offset="0" stop-color="rgb(0%,100%,100%)"/>
     <stop offset="1" stop-color="rgb(21.176471%,54.901961%,100%)"/>
    </linearGradient>
    <linearGradient id="svg_28" x1="-2.58" x2="3" y1="-2.88" y2="3.24">
     <stop offset="0" stop-color="rgb(0%,100%,100%)"/>
     <stop offset="1" stop-color="rgb(21.176471%,54.901961%,100%)"/>
    </linearGradient>
    <linearGradient id="svg_27" x1="-0.47" x2="1.89" y1="-1.36" y2="3.15">
     <stop offset="0" stop-color="rgb(0%,100%,100%)"/>
     <stop offset="1" stop-color="rgb(21.176471%,54.901961%,100%)"/>
    </linearGradient>
    <linearGradient id="svg_26" x1="-0.66" x2="4.92" y1="-0.77" y2="5.34">
     <stop offset="0" stop-color="rgb(0%,100%,100%)"/>
     <stop offset="1" stop-color="rgb(21.176471%,54.901961%,100%)"/>
    </linearGradient>
    <linearGradient id="svg_25" x1="-0.41" x2="3.67" y1="-0.08" y2="2.51">
     <stop offset="0" stop-color="rgb(0%,100%,100%)"/>
     <stop offset="1" stop-color="rgb(21.176471%,54.901961%,100%)"/>
    </linearGradient>
    <linearGradient id="svg_24" x1="-0.57" x2="5.01" y1="-0.67" y2="5.44">
     <stop offset="0" stop-color="rgb(0%,100%,100%)"/>
     <stop offset="1" stop-color="rgb(21.176471%,54.901961%,100%)"/>
    </linearGradient>
    <linearGradient id="svg_23" x1="-0.47" x2="2.33" y1="-0.56" y2="2.49">
     <stop offset="0" stop-color="rgb(0%,100%,100%)"/>
     <stop offset="1" stop-color="rgb(21.176471%,54.901961%,100%)"/>
    </linearGradient>
    <linearGradient id="svg_22" x1="-2.4" x2="3.18" y1="-2.68" y2="3.44">
     <stop offset="0" stop-color="rgb(0%,100%,100%)"/>
     <stop offset="1" stop-color="rgb(21.176471%,54.901961%,100%)"/>
    </linearGradient>
    <linearGradient id="svg_21" x1="-1.06" x2="1.3" y1="-2.47" y2="2.03">
     <stop offset="0" stop-color="rgb(0%,100%,100%)"/>
     <stop offset="1" stop-color="rgb(21.176471%,54.901961%,100%)"/>
    </linearGradient>
    <linearGradient id="svg_20" x1="-4.32" x2="1.26" y1="-4.79" y2="1.33">
     <stop offset="0" stop-color="rgb(0%,100%,100%)"/>
     <stop offset="1" stop-color="rgb(21.176471%,54.901961%,100%)"/>
    </linearGradient>
    <linearGradient id="svg_19" x1="-2.96" x2="1.12" y1="-1.7" y2="0.89">
     <stop offset="0" stop-color="rgb(0%,100%,100%)"/>
     <stop offset="1" stop-color="rgb(21.176471%,54.901961%,100%)"/>
    </linearGradient>
   </defs>
   <path d="m154.19,206.77c0,8.24 -6.68,14.92 -14.92,14.92c-8.24,0 -14.92,-6.68 -14.92,-14.92c0,-8.24 6.68,-14.92 14.92,-14.92c8.24,0 14.92,6.68 14.92,14.92zm0,0" fill="url(#svg_30)" fill-rule="nonzero" id="svg_51"/>
   <path d="m113.79,160.55c-7.22,0.59 -13.09,6.36 -13.63,13.63c-0.05,0.7 -0.05,1.45 0,2.21c0.22,3.77 -1.08,7.54 -3.72,10.29c-2.69,2.75 -6.41,4.04 -10.23,3.82c-0.7,-0.05 -1.45,-0.05 -2.21,0.05c-7.22,0.65 -12.98,6.52 -13.52,13.74c-0.65,9.16 6.95,16.7 16.11,16c7.22,-0.59 13.04,-6.41 13.63,-13.57c0.05,-0.75 0.05,-1.51 0,-2.26c-0.22,-3.82 1.02,-7.54 3.72,-10.29c2.69,-2.75 6.41,-4.04 10.23,-3.82c0.7,0.05 1.45,0.05 2.21,-0.05c7.22,-0.65 12.98,-6.57 13.52,-13.74c0.65,-9.16 -7,-16.7 -16.11,-16zm0,0" fill="url(#svg_29)" fill-rule="nonzero" id="svg_52"/>
   <path d="m61.54,181.61c0,8.24 -6.68,14.92 -14.92,14.92c-8.24,0 -14.92,-6.68 -14.92,-14.92c0,-8.24 6.68,-14.92 14.92,-14.92c8.24,0 14.92,6.68 14.92,14.92zm0,0" fill="url(#svg_28)" fill-rule="nonzero" id="svg_53"/>
   <path d="m73.93,136.42c-4.15,-5.93 -12.07,-8.08 -18.64,-4.96c-0.65,0.32 -1.29,0.65 -1.89,1.08c-3.18,2.1 -7.06,2.85 -10.72,1.89c-3.66,-0.97 -6.73,-3.56 -8.46,-6.95c-0.32,-0.65 -0.7,-1.24 -1.13,-1.89c-4.15,-5.87 -12.12,-7.97 -18.64,-4.79c-8.24,3.99 -10.99,14.38 -5.76,21.87c4.15,5.93 12.07,8.08 18.64,5.01c0.65,-0.32 1.35,-0.7 1.89,-1.08c3.18,-2.1 7.06,-2.85 10.72,-1.94c3.66,0.97 6.68,3.56 8.4,6.95c0.32,0.65 0.7,1.24 1.13,1.89c4.15,5.87 12.17,7.97 18.69,4.85c8.24,-3.99 10.93,-14.33 5.76,-21.92zm0,0" fill="url(#svg_27)" fill-rule="nonzero" id="svg_54"/>
   <path d="m37.03,88.86c0,8.24 -6.68,14.92 -14.92,14.92c-8.24,0 -14.92,-6.68 -14.92,-14.92c0,-8.24 6.68,-14.92 14.92,-14.92c8.24,0 14.92,6.68 14.92,14.92zm0,0" fill="url(#svg_26)" fill-rule="nonzero" id="svg_55"/>
   <path d="m74.9,89.88c3.07,-6.57 0.97,-14.54 -4.96,-18.64c-0.65,-0.38 -1.29,-0.81 -1.94,-1.13c-3.45,-1.67 -5.98,-4.63 -7,-8.4c-1.02,-3.66 -0.27,-7.54 1.83,-10.77c0.38,-0.59 0.75,-1.24 1.08,-1.94c3.02,-6.57 0.81,-14.49 -5.17,-18.58c-7.59,-5.12 -17.88,-2.32 -21.82,5.93c-3.12,6.52 -0.97,14.49 4.96,18.64c0.65,0.43 1.24,0.81 1.89,1.13c3.45,1.67 6.03,4.69 7.06,8.4c0.97,3.66 0.27,7.59 -1.83,10.83c-0.43,0.59 -0.75,1.19 -1.08,1.89c-3.07,6.57 -0.81,14.49 5.17,18.58c7.59,5.17 17.88,2.37 21.82,-5.93zm0,0" fill="url(#svg_25)" fill-rule="nonzero" id="svg_56"/>
   <path d="m105.12,21.15c0,8.24 -6.68,14.92 -14.92,14.92c-8.24,0 -14.92,-6.68 -14.92,-14.92c0,-8.24 6.68,-14.92 14.92,-14.92c8.24,0 14.92,6.68 14.92,14.92zm0,0" fill="url(#svg_24)" fill-rule="nonzero" id="svg_57"/>
   <path d="m115.67,67.36c7.16,-0.59 13.04,-6.36 13.63,-13.63c0.05,-0.7 0.05,-1.45 0,-2.21c-0.22,-3.77 1.02,-7.54 3.72,-10.29c2.69,-2.75 6.41,-4.04 10.23,-3.77c0.75,0.05 1.45,0.05 2.21,-0.05c7.22,-0.65 12.98,-6.52 13.52,-13.74c0.65,-9.16 -6.95,-16.7 -16.11,-16c-7.22,0.59 -13.04,6.41 -13.63,13.57c-0.05,0.75 -0.05,1.51 0,2.26c0.22,3.82 -1.08,7.54 -3.72,10.29c-2.69,2.75 -6.41,4.04 -10.23,3.82c-0.75,-0.05 -1.45,-0.05 -2.26,0.05c-7.22,0.65 -12.98,6.57 -13.52,13.74c-0.59,9.16 7,16.7 16.16,16l0,-0.05zm0,0" fill="url(#svg_23)" fill-rule="nonzero" id="svg_58"/>
   <path d="m197.71,46.3c0,8.24 -6.68,14.92 -14.92,14.92c-8.24,0 -14.92,-6.68 -14.92,-14.92c0,-8.24 6.68,-14.92 14.92,-14.92c8.24,0 14.92,6.68 14.92,14.92zm0,0" fill="url(#svg_22)" fill-rule="nonzero" id="svg_59"/>
   <path d="m155.48,91.5c4.15,5.93 12.07,8.08 18.64,4.96c0.65,-0.32 1.35,-0.65 1.89,-1.08c3.18,-2.1 7.06,-2.85 10.72,-1.89c3.66,0.97 6.68,3.56 8.4,6.95c0.32,0.65 0.7,1.24 1.13,1.89c4.2,5.87 12.17,7.97 18.69,4.79c8.3,-3.99 10.99,-14.38 5.76,-21.87c-4.15,-5.93 -12.07,-8.08 -18.64,-5.01c-0.65,0.32 -1.29,0.7 -1.89,1.08c-3.18,2.1 -7.06,2.85 -10.72,1.94c-3.72,-0.97 -6.73,-3.56 -8.46,-6.95c-0.32,-0.65 -0.7,-1.24 -1.13,-1.89c-4.15,-5.87 -12.12,-7.97 -18.64,-4.85c-8.24,3.99 -10.93,14.33 -5.76,21.92zm0,0" fill="url(#svg_21)" fill-rule="nonzero" id="svg_60"/>
   <path d="m222.27,139.11c0,8.24 -6.68,14.92 -14.92,14.92c-8.24,0 -14.92,-6.68 -14.92,-14.92c0,-8.24 6.68,-14.92 14.92,-14.92c8.24,0 14.92,6.68 14.92,14.92zm0,0" fill="url(#svg_20)" fill-rule="nonzero" id="svg_61"/>
   <path d="m154.56,138.03c-3.07,6.57 -0.97,14.54 5.01,18.64c0.65,0.38 1.24,0.81 1.89,1.13c3.45,1.67 6.03,4.63 7.06,8.4c0.97,3.66 0.27,7.54 -1.83,10.77c-0.38,0.59 -0.75,1.24 -1.08,1.94c-3.02,6.57 -0.81,14.49 5.17,18.58c7.59,5.12 17.94,2.32 21.87,-5.93c3.07,-6.52 0.97,-14.49 -5.01,-18.64c-0.65,-0.43 -1.24,-0.81 -1.89,-1.13c-3.45,-1.67 -6.03,-4.69 -7.06,-8.4c-0.97,-3.66 -0.27,-7.59 1.83,-10.83c0.38,-0.59 0.75,-1.19 1.08,-1.89c3.07,-6.57 0.81,-14.49 -5.17,-18.58c-7.54,-5.17 -17.88,-2.37 -21.82,5.93l-0.05,0zm0,0" fill="url(#svg_19)" fill-rule="nonzero" id="svg_62"/>
  </g>
 </g>
</svg>